# xmcd
#
# Track frame offsets:
#	150
#	22211
#	47607
#	69164
#	93997
#	121740
#	146882
#	173916
#	195080
#	216882
#	250320
#	274171
#	305781
#
# Disc length: 4516 seconds
#
# Revision: 1
# Processed by: cddbd v1.5.2PL0 Copyright (c) Steve Scherf et al.
# Submitted via: audiograbber 1.83.01
#
DISCID=bb11a20d
DTITLE=Leo Gillespie - From my heart
DYEAR=2005
DGENRE=
TTITLE0=Tricks of the fish
TTITLE1=Asaka from Osaka
TTITLE2=Centre of nowhere
TTITLE3=You can't take it with you (Lance Wakely)
TTITLE4=From my heart
TTITLE5=By the Cambodian border
TTITLE6=Just another sun going down
TTITLE7=The night owl song
TTITLE8=The song I used to sing
TTITLE9=Just lay himself down
TTITLE10=Can I go all the way with you (John Prine)
TTITLE11=Devil inside
TTITLE12=Silence
EXTD=
EXTT0=
EXTT1=
EXTT2=
EXTT3=
EXTT4=
EXTT5=
EXTT6=
EXTT7=
EXTT8=
EXTT9=
EXTT10=
EXTT11=
EXTT12=
PLAYORDER=
